<svg width="1090" height="1048" viewBox="0 0 1090 1048" fill="none" xmlns="http://www.w3.org/2000/svg">
<g opacity="0.16">
<path d="M860.009 234.567C772.001 105.403 595.949 72.0392 466.785 160.047C337.621 248.055 304.258 424.107 392.265 553.27C480.273 682.434 656.325 715.798 785.489 627.79C914.653 539.783 948.016 363.73 860.009 234.567Z" stroke="#707070"/>
<path d="M929.549 336.627C841.698 207.692 665.772 174.513 536.607 262.521C407.443 350.529 373.954 526.396 461.806 655.331C549.658 784.266 725.584 817.446 854.748 729.438C983.913 641.43 1017.4 465.562 929.549 336.627Z" stroke="#707070"/>
<path d="M697.331 494.853C609.479 365.918 433.553 332.738 304.388 420.747C175.224 508.755 141.735 684.622 229.587 813.557C317.439 942.492 493.365 975.672 622.529 887.664C751.694 799.655 785.182 623.788 697.331 494.853Z" stroke="#707070"/>
</g>
<path fill-rule="evenodd" clip-rule="evenodd" d="M441.87 172.529C440.805 171.26 438.913 171.094 437.643 172.159L430.561 178.1C429.291 179.165 429.125 181.058 430.19 182.327L436.125 189.402C437.19 190.671 439.083 190.837 440.352 189.772L447.435 183.831C448.704 182.766 448.87 180.874 447.805 179.604L441.87 172.529Z" fill="#FF6701"/>
<path fill-rule="evenodd" clip-rule="evenodd" d="M391.346 536.967C390.916 535.367 389.271 534.418 387.67 534.848L378.742 537.247C377.142 537.677 376.194 539.323 376.624 540.923L379.023 549.851C379.453 551.451 381.099 552.4 382.699 551.97L391.627 549.57C393.227 549.14 394.175 547.495 393.745 545.895L391.346 536.967Z" fill="#3794FE"/>
<path fill-rule="evenodd" clip-rule="evenodd" d="M774.937 218.569C775.306 216.954 774.296 215.345 772.681 214.976L763.669 212.915C762.054 212.545 760.445 213.555 760.076 215.17L758.015 224.183C757.645 225.798 758.655 227.406 760.27 227.776L769.282 229.837C770.898 230.206 772.506 229.197 772.876 227.581L774.937 218.569Z" fill="#3794FE"/>
</svg>
