<svg width="1048" height="1090" viewBox="0 0 1048 1090" fill="none" xmlns="http://www.w3.org/2000/svg">
<g opacity="0.16">
<path d="M234.567 229.306C105.403 317.314 72.0392 493.366 160.047 622.53C248.055 751.693 424.107 785.057 553.271 697.049C682.434 609.042 715.798 432.989 627.79 303.826C539.783 174.662 363.73 141.298 234.567 229.306Z" stroke="#707070"/>
<path d="M336.627 159.765C207.692 247.617 174.512 423.543 262.52 552.708C350.529 681.872 526.396 715.36 655.331 627.509C784.266 539.657 817.446 363.731 729.437 234.567C641.429 105.402 465.562 71.9137 336.627 159.765Z" stroke="#707070"/>
<path d="M494.853 391.984C365.918 479.836 332.738 655.762 420.747 784.926C508.755 914.091 684.622 947.579 813.557 859.728C942.492 771.876 975.672 595.95 887.664 466.785C799.655 337.621 623.788 304.132 494.853 391.984Z" stroke="#707070"/>
</g>
<path fill-rule="evenodd" clip-rule="evenodd" d="M172.529 647.445C171.26 648.51 171.094 650.402 172.159 651.672L178.1 658.754C179.165 660.024 181.058 660.189 182.327 659.125L189.402 653.189C190.671 652.125 190.837 650.232 189.772 648.963L183.831 641.88C182.766 640.611 180.874 640.445 179.604 641.51L172.529 647.445Z" fill="#FF6701"/>
<path fill-rule="evenodd" clip-rule="evenodd" d="M536.967 697.969C535.367 698.399 534.418 700.045 534.848 701.645L537.247 710.573C537.677 712.173 539.323 713.121 540.923 712.691L549.851 710.292C551.451 709.862 552.4 708.217 551.97 706.617L549.571 697.689C549.141 696.088 547.495 695.14 545.895 695.57L536.967 697.969Z" fill="#3794FE"/>
<path fill-rule="evenodd" clip-rule="evenodd" d="M218.569 314.378C216.954 314.009 215.345 315.018 214.976 316.634L212.915 325.646C212.545 327.261 213.555 328.87 215.17 329.239L224.182 331.3C225.797 331.67 227.406 330.66 227.776 329.045L229.837 320.033C230.206 318.417 229.196 316.809 227.581 316.439L218.569 314.378Z" fill="#3794FE"/>
</svg>
