<svg width="993" height="1069" viewBox="0 0 993 1069" fill="none" xmlns="http://www.w3.org/2000/svg">
<g opacity="0.16">
<path d="M616.092 123.346C473.891 58.48 306.031 121.172 241.165 263.373C176.298 405.573 238.99 573.434 381.191 638.3C523.392 703.166 691.252 640.474 756.119 498.274C820.985 356.073 758.293 188.212 616.092 123.346Z" stroke="#707070"/>
<path d="M728.454 174.601C586.505 109.85 418.847 172.634 353.981 314.835C289.115 457.036 351.604 624.804 493.553 689.555C635.501 754.306 803.159 691.522 868.025 549.321C932.892 407.12 870.402 239.352 728.454 174.601Z" stroke="#707070"/>
<path d="M611.834 430.258C469.885 365.507 302.227 428.291 237.361 570.492C172.494 712.694 234.984 880.461 376.933 945.212C518.881 1009.96 686.539 947.18 751.405 804.978C816.272 662.777 753.782 495.01 611.834 430.258Z" stroke="#707070"/>
</g>
<path fill-rule="evenodd" clip-rule="evenodd" d="M226.323 286.959C224.755 286.425 223.05 287.264 222.516 288.832L219.538 297.584C219.004 299.153 219.842 300.857 221.411 301.391L230.153 304.366C231.722 304.9 233.426 304.061 233.96 302.493L236.939 293.741C237.472 292.173 236.634 290.468 235.065 289.935L226.323 286.959Z" fill="#FF6701"/>
<path fill-rule="evenodd" clip-rule="evenodd" d="M371.956 624.832C370.759 623.687 368.86 623.728 367.715 624.925L361.322 631.603C360.176 632.8 360.218 634.699 361.415 635.845L368.093 642.238C369.29 643.383 371.189 643.342 372.335 642.145L378.727 635.467C379.873 634.27 379.831 632.371 378.635 631.225L371.956 624.832Z" fill="#3794FE"/>
<path fill-rule="evenodd" clip-rule="evenodd" d="M535.043 153.747C534.522 152.174 532.825 151.321 531.252 151.842L522.476 154.749C520.903 155.27 520.051 156.968 520.572 158.541L523.479 167.316C524 168.889 525.697 169.742 527.27 169.221L536.046 166.314C537.618 165.793 538.471 164.095 537.95 162.523L535.043 153.747Z" fill="#3794FE"/>
</svg>
