<svg width="1102" height="984" viewBox="0 0 1102 984" fill="none" xmlns="http://www.w3.org/2000/svg">
<g opacity="0.16">
<path d="M939.89 615.107C1005.94 473.454 944.659 305.075 803.006 239.021C661.353 172.967 492.974 234.253 426.92 375.905C360.866 517.558 422.151 685.938 563.804 751.991C705.457 818.045 873.836 756.76 939.89 615.107Z" stroke="#707070"/>
<path d="M887.697 727.036C953.633 585.634 892.255 417.457 750.601 351.403C608.948 285.349 440.663 346.432 374.726 487.834C308.79 629.236 370.168 797.413 511.822 863.467C653.475 929.521 821.76 868.438 887.697 727.036Z" stroke="#707070"/>
<path d="M633.024 608.28C698.961 466.878 637.582 298.701 495.929 232.647C354.275 166.593 185.991 227.676 120.054 369.078C54.1172 510.48 115.496 678.657 257.149 744.711C398.803 810.765 567.087 749.682 633.024 608.28Z" stroke="#707070"/>
</g>
<path fill-rule="evenodd" clip-rule="evenodd" d="M779.544 223.983C780.091 222.419 779.267 220.708 777.703 220.161L768.976 217.109C767.412 216.562 765.701 217.387 765.154 218.951L762.106 227.668C761.559 229.232 762.383 230.943 763.947 231.49L772.674 234.542C774.237 235.089 775.949 234.264 776.496 232.7L779.544 223.983Z" fill="#FF6701"/>
<path fill-rule="evenodd" clip-rule="evenodd" d="M440.465 366.784C441.62 365.596 441.595 363.697 440.407 362.541L433.783 356.093C432.596 354.937 430.696 354.963 429.541 356.15L423.092 362.775C421.937 363.962 421.962 365.861 423.149 367.017L429.774 373.465C430.961 374.621 432.861 374.595 434.016 373.408L440.465 366.784Z" fill="#3794FE"/>
<path fill-rule="evenodd" clip-rule="evenodd" d="M881.059 749.206C882.482 750.055 884.323 749.59 885.173 748.167L889.911 740.23C890.761 738.807 890.296 736.965 888.873 736.116L880.936 731.377C879.513 730.528 877.671 730.993 876.822 732.415L872.083 740.353C871.234 741.776 871.699 743.617 873.121 744.467L881.059 749.206Z" fill="#F6A74A"/>
</svg>
