<svg width="1306" height="984" viewBox="0 0 1306 984" fill="none" xmlns="http://www.w3.org/2000/svg">
<g opacity="0.16">
<path d="M365.793 615.107C299.739 473.454 361.024 305.075 502.677 239.021C644.33 172.967 812.709 234.253 878.763 375.905C944.817 517.558 883.532 685.938 741.879 751.991C600.226 818.045 431.847 756.76 365.793 615.107Z" stroke="#707070"/>
<path d="M417.986 727.036C352.05 585.634 413.428 417.457 555.082 351.403C696.735 285.349 865.02 346.432 930.957 487.834C996.893 629.236 935.515 797.413 793.861 863.467C652.207 929.521 483.923 868.438 417.986 727.036Z" stroke="#707070"/>
<path d="M672.659 608.28C606.722 466.878 668.101 298.701 809.755 232.647C951.408 166.593 1119.69 227.676 1185.63 369.078C1251.57 510.48 1190.19 678.657 1048.53 744.711C906.88 810.765 738.596 749.682 672.659 608.28Z" stroke="#707070"/>
</g>
<path fill-rule="evenodd" clip-rule="evenodd" d="M605.241 204.503C606.882 204.278 608.395 205.426 608.62 207.068L609.875 216.227C610.099 217.869 608.951 219.382 607.309 219.607L598.16 220.86C596.519 221.084 595.006 219.936 594.781 218.294L593.526 209.135C593.302 207.494 594.45 205.981 596.092 205.756L605.241 204.503Z" fill="#FF6701"/>
<path fill-rule="evenodd" clip-rule="evenodd" d="M260.851 829.153C261.223 827.539 262.834 826.532 264.449 826.905L273.456 828.985C275.071 829.358 276.077 830.968 275.705 832.583L273.625 841.591C273.252 843.205 271.641 844.212 270.027 843.839L261.019 841.759C259.405 841.387 258.398 839.776 258.771 838.161L260.851 829.153Z" fill="#3794FE"/>
<path fill-rule="evenodd" clip-rule="evenodd" d="M152.029 441.625C151.151 440.22 151.578 438.369 152.983 437.491L160.823 432.592C162.228 431.714 164.079 432.142 164.957 433.547L169.856 441.387C170.734 442.792 170.307 444.643 168.902 445.521L161.062 450.42C159.657 451.298 157.806 450.87 156.928 449.465L152.029 441.625Z" fill="#3794FE"/>
<path fill-rule="evenodd" clip-rule="evenodd" d="M654.891 565.191C656.021 563.979 657.919 563.913 659.131 565.043L661.715 567.452C662.926 568.582 662.993 570.48 661.863 571.692L659.453 574.276C658.323 575.488 656.425 575.554 655.213 574.424L652.629 572.015C651.418 570.885 651.351 568.986 652.481 567.775L654.891 565.191Z" fill="#202249"/>
</svg>
