<svg width="45" height="45" viewBox="0 0 45 45" fill="none" xmlns="http://www.w3.org/2000/svg">
<g clip-path="url(#clip0_12_607)">
<path d="M22.5 0C16.5326 0 10.8097 2.37053 6.59008 6.5901C2.37051 10.8097 -1.52588e-05 16.5326 -1.52588e-05 22.5C-1.52588e-05 28.4674 2.37051 34.1903 6.59008 38.4099C10.8097 42.6295 16.5326 45 22.5 45C28.4674 45 34.1903 42.6295 38.4099 38.4099C42.6295 34.1903 45 28.4674 45 22.5C45 16.5326 42.6295 10.8097 38.4099 6.5901C34.1903 2.37053 28.4674 0 22.5 0ZM33.47 14.31C33.34 16.3767 29.51 31.8 29.51 31.8C29.51 31.8 29.28 32.7 28.4566 32.7333C28.2546 32.7396 28.0533 32.7051 27.8648 32.6318C27.6764 32.5584 27.5047 32.4479 27.36 32.3067C26.4933 31.5633 24.49 30.14 22.6267 28.8533C22.0633 29.3267 20.94 30.3 19.7767 31.46C18.13 33.1067 18.34 31.46 18.34 31.46L18.8467 26.1C18.8619 26.0641 18.8821 26.0304 18.9067 26C18.9067 26 28.61 17.3733 28.8667 16.47C28.8867 16.4 28.8133 16.3633 28.71 16.3933C28.0667 16.63 16.8933 23.6867 15.6633 24.4667C15.5723 24.4874 15.4777 24.4874 15.3867 24.4667L9.96666 22.7033C9.96666 22.7033 9.31999 22.44 9.52999 21.8433C9.56999 21.72 9.65665 21.6167 9.91665 21.4367C11.1167 20.6 32.1467 13.04 32.1467 13.04C32.4494 12.9335 32.7753 12.9104 33.09 12.9733C33.1736 13.0025 33.2483 13.0529 33.3067 13.1195C33.3651 13.186 33.4053 13.2666 33.4233 13.3533C33.4608 13.5104 33.4765 13.672 33.47 13.8333C33.5 13.9767 33.4833 14.1 33.47 14.31Z" fill="#3794FE"/>
</g>
<defs>
<clipPath id="clip0_12_607">
<rect width="45" height="45" fill="white"/>
</clipPath>
</defs>
</svg>
