<svg width="47" height="47" viewBox="0 0 47 47" fill="none" xmlns="http://www.w3.org/2000/svg">
<g clip-path="url(#clip0_12_609)">
<path d="M3.05936e-05 22.559C3.05936e-05 11.9266 2.91022e-05 6.60743 3.30077 3.30668C6.60152 0.00593645 11.9266 0 22.5591 0H24.441C35.0734 0 40.3926 -2.83079e-07 43.6933 3.30668C46.9941 6.61336 47 11.9266 47 22.559V24.4409C47 35.0734 47 40.3926 43.6933 43.6933C40.3867 46.9941 35.0734 47 24.441 47H22.5591C11.9266 47 6.60746 47 3.30077 43.6933C-0.00590763 40.3866 3.05936e-05 35.0734 3.05936e-05 24.4409V22.559Z" fill="#4376FA"/>
<path d="M24.898 33.2806C14.2122 33.2806 8.07971 25.937 7.82443 13.7195H13.1674C13.3455 22.6897 17.323 26.4832 20.4337 27.2668V13.7195H25.4858V21.4371C28.5788 21.1046 31.832 17.5783 32.9303 13.7195H37.9823C37.1393 18.4688 33.613 22.0307 31.1077 23.4674C33.07 24.4395 34.8038 25.8168 36.1945 27.5084C37.5852 29.2 38.6013 31.1673 39.1756 33.2806H33.613C32.4257 29.5583 29.4574 26.6791 25.5036 26.2872V33.2806H24.898Z" fill="white"/>
</g>
<defs>
<clipPath id="clip0_12_609">
<rect width="47" height="47" fill="white"/>
</clipPath>
</defs>
</svg>
