<svg width="45" height="45" viewBox="0 0 45 45" fill="none" xmlns="http://www.w3.org/2000/svg">
<g clip-path="url(#clip0_12_604)">
<path d="M45 22.5C45 19.5453 44.418 16.6194 43.2873 13.8896C42.1566 11.1598 40.4992 8.67942 38.4099 6.5901C36.3206 4.50078 33.8402 2.84344 31.1104 1.71271C28.3806 0.581982 25.4547 0 22.5 0C16.5326 0 10.8097 2.37053 6.5901 6.5901C2.37053 10.8097 0 16.5326 0 22.5C0.0012248 27.8605 1.91567 33.0445 5.39879 37.1192C8.88191 41.1938 13.705 43.8915 19 44.7267V29.0033H13.27V22.5H18.9833V17.54C18.9833 11.9033 22.3433 8.78667 27.4833 8.78667C29.1707 8.81028 30.8541 8.95734 32.52 9.22667V14.7633H29.68C26.8867 14.7633 26.0133 16.5 26.0133 18.2767V22.5H32.2533L31.2533 29.0033H26.0133V44.7267C31.3056 43.888 36.1252 41.1889 39.6055 37.1147C43.0858 33.0404 44.9986 27.8583 45 22.5Z" fill="#183B95"/>
<path d="M31.2529 29.0033L32.2529 22.5H26.0129V18.2766C26.0129 16.5 26.8862 14.7633 29.6795 14.7633H32.5195V9.22662C30.8536 8.95729 29.1702 8.81023 27.4829 8.78662C22.3429 8.78662 18.9829 11.9033 18.9829 17.54V22.5H13.2695V29.0033H18.9829V44.7266C20.1464 44.9073 21.3221 44.9987 22.4995 45C23.6759 44.9988 24.8505 44.9074 26.0129 44.7266V29.0033H31.2529Z" fill="white"/>
</g>
<defs>
<clipPath id="clip0_12_604">
<rect width="45" height="45" fill="white"/>
</clipPath>
</defs>
</svg>
