<svg width="31" height="37" viewBox="0 0 31 37" fill="none" xmlns="http://www.w3.org/2000/svg">
<path d="M3 1H24C27.3137 1 30 3.68629 30 7V36H3V1Z" stroke="#3794FE" stroke-width="2"/>
<rect y="11" width="23" height="14" rx="2" fill="#3794FE"/>
<path d="M3.816 21C3.76267 21 3.71733 20.9813 3.68 20.944C3.64267 20.9067 3.624 20.8613 3.624 20.808V15.6C3.624 15.5413 3.64267 15.4933 3.68 15.456C3.71733 15.4187 3.76267 15.4 3.816 15.4H5.96C6.376 15.4 6.73867 15.4667 7.048 15.6C7.35733 15.728 7.59733 15.9253 7.768 16.192C7.93867 16.4533 8.024 16.7813 8.024 17.176C8.024 17.576 7.93867 17.9067 7.768 18.168C7.59733 18.424 7.35733 18.616 7.048 18.744C6.73867 18.872 6.376 18.936 5.96 18.936H4.768V20.808C4.768 20.8613 4.74933 20.9067 4.712 20.944C4.68 20.9813 4.63467 21 4.576 21H3.816ZM4.752 18.048H5.92C6.22933 18.048 6.46667 17.976 6.632 17.832C6.79733 17.6827 6.88 17.464 6.88 17.176C6.88 16.9093 6.80267 16.696 6.648 16.536C6.49333 16.3707 6.25067 16.288 5.92 16.288H4.752V18.048ZM9.56944 21C9.5161 21 9.47077 20.9813 9.43344 20.944C9.3961 20.9067 9.37744 20.8613 9.37744 20.808V15.6C9.37744 15.5413 9.3961 15.4933 9.43344 15.456C9.47077 15.4187 9.5161 15.4 9.56944 15.4H11.5214C12.0601 15.4 12.5028 15.4827 12.8494 15.648C13.2014 15.8133 13.4654 16.0587 13.6414 16.384C13.8228 16.7093 13.9161 17.1067 13.9214 17.576C13.9321 17.8107 13.9374 18.0187 13.9374 18.2C13.9374 18.3813 13.9321 18.5867 13.9214 18.816C13.9108 19.312 13.8201 19.7227 13.6494 20.048C13.4788 20.368 13.2201 20.608 12.8734 20.768C12.5321 20.9227 12.0948 21 11.5614 21H9.56944ZM10.4894 20.08H11.5214C11.8201 20.08 12.0628 20.0373 12.2494 19.952C12.4361 19.8667 12.5721 19.7307 12.6574 19.544C12.7481 19.352 12.7961 19.1013 12.8014 18.792C12.8068 18.632 12.8094 18.4933 12.8094 18.376C12.8148 18.2533 12.8148 18.1333 12.8094 18.016C12.8094 17.8933 12.8068 17.7547 12.8014 17.6C12.7908 17.1627 12.6814 16.84 12.4734 16.632C12.2654 16.424 11.9348 16.32 11.4814 16.32H10.4894V20.08ZM15.6744 21C15.6211 21 15.5758 20.9813 15.5384 20.944C15.5011 20.9067 15.4824 20.8613 15.4824 20.808V15.6C15.4824 15.5413 15.5011 15.4933 15.5384 15.456C15.5758 15.4187 15.6211 15.4 15.6744 15.4H19.1464C19.2051 15.4 19.2531 15.4187 19.2904 15.456C19.3278 15.4933 19.3464 15.5413 19.3464 15.6V16.16C19.3464 16.2187 19.3278 16.2667 19.2904 16.304C19.2531 16.336 19.2051 16.352 19.1464 16.352H16.5784V17.872H18.9864C19.0451 17.872 19.0931 17.8907 19.1304 17.928C19.1678 17.9653 19.1864 18.0133 19.1864 18.072V18.632C19.1864 18.6853 19.1678 18.7307 19.1304 18.768C19.0931 18.8053 19.0451 18.824 18.9864 18.824H16.5784V20.808C16.5784 20.8613 16.5598 20.9067 16.5224 20.944C16.4851 20.9813 16.4371 21 16.3784 21H15.6744Z" fill="white"/>
</svg>
