<svg width="45" height="45" viewBox="0 0 45 45" fill="none" xmlns="http://www.w3.org/2000/svg">
<path d="M22.5 45C34.9264 45 45 34.9264 45 22.5C45 10.0736 34.9264 0 22.5 0C10.0736 0 0 10.0736 0 22.5C0 34.9264 10.0736 45 22.5 45Z" fill="#2DCA72"/>
<path fill-rule="evenodd" clip-rule="evenodd" d="M33.3367 11.9567C32.0142 10.6258 30.4408 9.57056 28.7077 8.85191C26.9746 8.13327 25.1162 7.76554 23.24 7.77C19.4564 7.77441 15.829 9.27916 13.1533 11.9543C10.4776 14.6293 8.97196 18.2564 8.96667 22.04C8.96501 24.5435 9.62138 27.0034 10.87 29.1733L8.84666 36.5667L16.4133 34.5667C18.5062 35.7053 20.8507 36.3023 23.2333 36.3033C27.0167 36.298 30.6436 34.793 33.3191 32.1181C35.9946 29.4432 37.5005 25.8167 37.5067 22.0333C37.5107 20.1617 37.1443 18.3077 36.4286 16.5783C35.7129 14.8489 34.6621 13.2782 33.3367 11.9567ZM23.24 33.91C21.1149 33.9047 19.0301 33.3291 17.2033 32.2433L16.77 31.9867L12.28 33.1633L13.48 28.7867L13.1967 28.3367C12.0093 26.4464 11.3807 24.2589 11.3833 22.0267C11.3886 18.8817 12.6408 15.8671 14.8652 13.6439C17.0897 11.4206 20.105 10.1702 23.25 10.1667C24.8087 10.1623 26.3528 10.4677 27.7925 11.0651C29.2322 11.6625 30.5389 12.54 31.6367 13.6467C32.7416 14.746 33.6175 16.0536 34.2137 17.4938C34.8099 18.9339 35.1146 20.478 35.11 22.0367C35.1096 23.5966 34.8018 25.1412 34.2043 26.5822C33.6069 28.0232 32.7314 29.3324 31.6279 30.4349C30.5243 31.5375 29.2144 32.4119 27.7729 33.0082C26.3314 33.6044 24.7866 33.9109 23.2267 33.91H23.24ZM29.7467 25.0267C29.39 24.8467 27.6367 23.9867 27.31 23.8667C26.9833 23.7467 26.7467 23.6867 26.5067 24.0433C26.2667 24.4 25.5867 25.2033 25.38 25.4433C25.1733 25.6833 24.9633 25.71 24.6067 25.5333C23.5552 25.113 22.5842 24.5142 21.7367 23.7633C20.9512 23.0438 20.2771 22.2113 19.7367 21.2933C19.53 20.9367 19.7133 20.7433 19.8933 20.5633C20.0733 20.3833 20.25 20.15 20.4267 19.94C20.5748 19.7613 20.695 19.5613 20.7833 19.3467C20.8306 19.248 20.853 19.1393 20.8483 19.03C20.8437 18.9207 20.8122 18.8142 20.7567 18.72C20.6667 18.5433 19.9533 16.7867 19.6567 16.0733C19.36 15.36 19.0733 15.4733 18.8533 15.46C18.6333 15.4467 18.4067 15.46 18.17 15.46C17.9893 15.4643 17.8115 15.5063 17.6479 15.5832C17.4843 15.6601 17.3386 15.7703 17.22 15.9067C16.8167 16.2884 16.4972 16.7498 16.282 17.2618C16.0668 17.7737 15.9605 18.3248 15.97 18.88C15.97 20.6333 17.2467 22.33 17.4267 22.5667C17.6067 22.8033 19.94 26.4067 23.52 27.95C24.1838 28.2372 24.8626 28.4887 25.5533 28.7033C26.2811 28.9243 27.0504 28.9723 27.8 28.8433C28.4833 28.74 29.91 27.98 30.2067 27.1467C30.5033 26.3133 30.5033 25.6 30.4133 25.4533C30.3233 25.3067 30.09 25.2167 29.7333 25.0267H29.7467Z" fill="white"/>
</svg>
