<svg width="30" height="36" viewBox="0 0 30 36" fill="none" xmlns="http://www.w3.org/2000/svg">
<path d="M28.4545 14.7273C28.4545 16.4932 27.6418 18.6521 26.2888 20.98C24.9503 23.2831 23.1515 25.6368 21.3312 27.7635C19.5141 29.8864 17.6942 31.7616 16.327 33.1072C15.6715 33.7523 15.1214 34.2745 14.7273 34.6423C14.3332 34.2745 13.7831 33.7523 13.1276 33.1072C11.7604 31.7616 9.94041 29.8864 8.12334 27.7635C6.303 25.6368 4.50428 23.2831 3.16572 20.98C1.81276 18.6521 1 16.4932 1 14.7273C1 7.14591 7.14591 1 14.7273 1C22.3086 1 28.4545 7.14591 28.4545 14.7273Z" stroke="#3794FE" stroke-width="2"/>
<circle cx="14.7271" cy="13.6364" r="6" fill="#3794FE"/>
</svg>
