<svg width="159" height="50" viewBox="0 0 159 50" fill="none" xmlns="http://www.w3.org/2000/svg">
<path fill-rule="evenodd" clip-rule="evenodd" d="M29 0H0V9H29V0ZM0 15H4H10H29V25H10V33H0V15ZM19 32H29V50H24H19H0V40H19V32Z" fill="#42454E"/>
<path d="M52.89 18.362V16.4H43.692V29H46.032V24.176H52.116V22.196H46.032V18.362H52.89Z" fill="#42454E"/>
<path d="M56.3832 20.792V19.388H54.2412V29H56.4912V24.338C56.4912 22.376 57.5712 21.368 59.2812 21.368C59.4432 21.368 59.6052 21.386 59.8032 21.422V19.28C58.2012 19.28 57.0312 19.784 56.3832 20.792Z" fill="#42454E"/>
<path d="M64.8111 19.28C63.2631 19.28 61.7691 19.676 60.7431 20.468L61.6251 22.106C62.3451 21.512 63.4611 21.152 64.5411 21.152C66.1431 21.152 66.9351 21.926 66.9351 23.24V23.384H64.4511C61.5351 23.384 60.4551 24.644 60.4551 26.246C60.4551 27.92 61.8411 29.126 64.0371 29.126C65.4771 29.126 66.5211 28.658 67.0611 27.83V29H69.1851V23.366C69.1851 20.594 67.5831 19.28 64.8111 19.28ZM64.5051 27.488C63.3531 27.488 62.6691 26.966 62.6691 26.156C62.6691 25.454 63.0831 24.878 64.6131 24.878H66.9351V25.994C66.5571 26.984 65.6031 27.488 64.5051 27.488Z" fill="#42454E"/>
<path d="M77.0067 19.28C75.6027 19.28 74.4327 19.748 73.6947 20.63V19.388H71.5527V29H73.8027V24.14C73.8027 22.214 74.8827 21.242 76.4847 21.242C77.9247 21.242 78.7707 22.07 78.7707 23.78V29H81.0207V23.492C81.0207 20.594 79.3107 19.28 77.0067 19.28Z" fill="#42454E"/>
<path d="M87.8529 29.126C89.7249 29.126 91.2189 28.316 91.9569 26.876L90.2289 25.868C89.6529 26.786 88.7889 27.2 87.8349 27.2C86.1789 27.2 84.9189 26.066 84.9189 24.194C84.9189 22.34 86.1789 21.188 87.8349 21.188C88.7889 21.188 89.6529 21.602 90.2289 22.52L91.9569 21.512C91.2189 20.054 89.7249 19.28 87.8529 19.28C84.8109 19.28 82.6509 21.314 82.6509 24.194C82.6509 27.074 84.8109 29.126 87.8529 29.126Z" fill="#42454E"/>
<path d="M98.748 19.28C97.416 19.28 96.282 19.712 95.544 20.504V15.644H93.294V29H95.544V24.14C95.544 22.214 96.624 21.242 98.226 21.242C99.666 21.242 100.512 22.07 100.512 23.78V29H102.762V23.492C102.762 20.594 101.052 19.28 98.748 19.28Z" fill="#42454E"/>
<path d="M106.23 17.804C107.076 17.804 107.67 17.192 107.67 16.4C107.67 15.662 107.058 15.104 106.23 15.104C105.402 15.104 104.79 15.698 104.79 16.454C104.79 17.21 105.402 17.804 106.23 17.804ZM105.096 29H107.346V19.388H105.096V29Z" fill="#42454E"/>
<path d="M118.356 29.18C121.812 29.18 123.45 27.452 123.45 25.436C123.45 20.81 115.98 22.556 115.98 19.874C115.98 18.92 116.772 18.164 118.716 18.164C119.814 18.164 121.056 18.488 122.19 19.154L122.928 17.336C121.83 16.616 120.246 16.22 118.734 16.22C115.278 16.22 113.658 17.948 113.658 19.982C113.658 24.662 121.146 22.88 121.146 25.598C121.146 26.534 120.318 27.236 118.356 27.236C116.808 27.236 115.206 26.66 114.198 25.85L113.388 27.668C114.432 28.568 116.394 29.18 118.356 29.18Z" fill="#42454E"/>
<path d="M130.488 19.28C129.156 19.28 128.022 19.712 127.284 20.504V15.644H125.034V29H127.284V24.14C127.284 22.214 128.364 21.242 129.966 21.242C131.406 21.242 132.252 22.07 132.252 23.78V29H134.502V23.492C134.502 20.594 132.792 19.28 130.488 19.28Z" fill="#42454E"/>
<path d="M141.244 29.126C144.232 29.126 146.374 27.074 146.374 24.194C146.374 21.314 144.232 19.28 141.244 19.28C138.292 19.28 136.132 21.314 136.132 24.194C136.132 27.074 138.292 29.126 141.244 29.126ZM141.244 27.2C139.624 27.2 138.4 26.03 138.4 24.194C138.4 22.358 139.624 21.188 141.244 21.188C142.882 21.188 144.106 22.358 144.106 24.194C144.106 26.03 142.882 27.2 141.244 27.2Z" fill="#42454E"/>
<path d="M153.334 19.28C152.02 19.28 150.904 19.73 150.148 20.648V19.388H148.006V32.492H150.256V27.83C151.03 28.712 152.11 29.126 153.334 29.126C156.142 29.126 158.212 27.182 158.212 24.194C158.212 21.224 156.142 19.28 153.334 19.28ZM153.082 27.2C151.462 27.2 150.22 26.03 150.22 24.194C150.22 22.358 151.462 21.188 153.082 21.188C154.702 21.188 155.926 22.358 155.926 24.194C155.926 26.03 154.702 27.2 153.082 27.2Z" fill="#42454E"/>
</svg>
